<svg xmlns="http://www.w3.org/2000/svg" version="1.1" xmlns:xlink="http://www.w3.org/1999/xlink" xmlns:svgjs="http://svgjs.com/svgjs" width="512" height="512" x="0" y="0" viewBox="0 0 512.004 512.004" style="enable-background:new 0 0 512 512" xml:space="preserve" class=""><g><link type="text/css" rel="stylesheet" id="dark-mode-custom-link"></link><link type="text/css" rel="stylesheet" id="dark-mode-general-link"></link><g xmlns="http://www.w3.org/2000/svg"><g><path d="m224.177 271.313c.979 3.995 5.014 6.49 9.07 5.5 4.023-.986 6.485-5.047 5.5-9.07l-21.814-89.016c-.986-4.023-5.047-6.484-9.07-5.5-4.023.986-6.485 5.047-5.5 9.07z" fill="#000000" data-original="#000000" class=""></path><path d="m291.329 277.028c4.401 0 7.84-3.751 7.483-8.111l-7.271-89.016c-.337-4.127-3.939-7.201-8.086-6.864-4.128.337-7.202 3.958-6.864 8.086l7.271 89.016c.321 3.92 3.601 6.889 7.467 6.889z" fill="#000000" data-original="#000000" class=""></path><path d="m358.688 270.138 7.271-89.016c.337-4.128-2.736-7.748-6.865-8.085-4.117-.345-7.749 2.736-8.085 6.865l-7.271 89.016c-.337 4.128 2.736 7.748 6.865 8.085 4.114.338 7.747-2.727 8.085-6.865z" fill="#000000" data-original="#000000" class=""></path><path d="m418.373 271.313 21.813-89.016c.986-4.023-1.477-8.084-5.5-9.07-4.024-.986-8.083 1.477-9.07 5.5l-21.813 89.016c-.986 4.023 1.477 8.084 5.5 9.07 4.023.985 8.084-1.478 9.07-5.5z" fill="#000000" data-original="#000000" class=""></path><path d="m489.421 125.075h-262.248c-4.142 0-7.5 3.358-7.5 7.5s3.358 7.5 7.5 7.5h262.248c4.939 0 8.559 4.651 7.336 9.444l-28.161 110.371c-1.024 4.014 1.399 8.098 5.413 9.122 4.036 1.03 8.103-1.422 9.121-5.413l28.162-110.372c3.64-14.267-7.13-28.152-21.871-28.152z" fill="#000000" data-original="#000000" class=""></path><path d="m473.765 369.317h-303.603c-8.646 0-15.68-7.034-15.68-15.68s7.034-15.68 15.68-15.68h270.625c13.759 0 25.745-9.312 29.147-22.644l4.52-17.712c1.024-4.014-1.399-8.098-5.413-9.122-4.018-1.024-8.098 1.399-9.122 5.413l-4.52 17.712c-1.706 6.684-7.714 11.353-14.613 11.353h-237.531c-6.885 0-12.891-4.657-14.606-11.324l-44.124-171.558h47.575c4.142 0 7.5-3.358 7.5-7.5s-3.358-7.5-7.5-7.5h-24.028l-13.599-52.351c-3.438-13.369-15.481-22.706-29.285-22.706h-31.287c-3.335-3.684-8.137-6.016-13.486-6.016h-62.203c-10.042.001-18.212 8.171-18.212 18.213v17.016c0 10.042 8.17 18.212 18.212 18.212h62.203c5.349 0 10.151-2.332 13.486-6.016h22.625c6.725 26.147 47.248 183.708 52.761 205.142-31.076.471-56.215 25.882-56.215 57.068 0 31.096 24.994 56.447 55.946 57.061-3.688 5.784-5.835 12.642-5.835 19.995 0 20.571 16.736 37.308 37.308 37.308s37.308-16.736 37.308-37.308c0-7.341-2.14-14.188-5.817-19.966h160.271c-3.677 5.778-5.817 12.625-5.817 19.966 0 20.571 16.736 37.308 37.308 37.308s37.308-16.736 37.308-37.308c0-7.341-2.14-14.188-5.817-19.966h18.529c11.417 0 20.705-9.288 20.705-20.705s-9.288-20.705-20.704-20.705zm-455.553-286.874c-1.771 0-3.212-1.441-3.212-3.212v-17.016c0-1.771 1.441-3.212 3.212-3.212h62.203c1.771 0 3.212 1.441 3.212 3.212v17.016c0 1.771-1.441 3.212-3.212 3.212zm80.415-6.015v-11.409h26.561c6.957 0 13.025 4.705 14.762 11.46l12.624 48.597h-11.906l-11.063-43.016c-.853-3.315-3.841-5.632-7.264-5.632zm101.863 376.573c-12.3 0-22.308-10.007-22.308-22.308s10.007-22.308 22.308-22.308 22.308 10.007 22.308 22.308-10.007 22.308-22.308 22.308zm223.254 0c-12.3 0-22.308-10.007-22.308-22.308s10.007-22.308 22.308-22.308 22.308 10.007 22.308 22.308-10.007 22.308-22.308 22.308zm50.021-57.274h-37.018c-4.051-1.511-8.431-2.342-13.003-2.342-4.571 0-8.951.83-13.002 2.342h-197.249c-4.051-1.511-8.431-2.342-13.003-2.342-4.571 0-8.951.83-13.002 2.342h-17.326c-23.208 0-42.09-18.881-42.09-42.09s18.881-42.09 42.09-42.09h2.977c.797 2.626 1.181 6.362 4.107 11.41h-7.084c-16.917 0-30.68 13.763-30.68 30.68s13.763 30.68 30.68 30.68h303.603c3.146 0 5.705 2.559 5.705 5.705-.001 3.146-2.56 5.705-5.705 5.705z" fill="#000000" data-original="#000000" class=""></path></g></g></g></svg>