<?xml version="1.0" encoding="UTF-8"?>
<svg viewBox="0 0 28 21" xmlns="http://www.w3.org/2000/svg">
<path d="m0.028107 10.487c0-0.3978 0.18419-0.77935 0.51205-1.0606 0.32786-0.28131 0.77253-0.43934 1.2362-0.43934h24.475c0.4636 0 0.9083 0.15803 1.2362 0.43934 0.3278 0.2813 0.512 0.66285 0.512 1.0606s-0.1842 0.7794-0.512 1.0607c-0.3279 0.2813-0.7726 0.4393-1.2362 0.4393h-24.475c-0.46366 0-0.90834-0.158-1.2362-0.4393-0.32786-0.2813-0.51205-0.6629-0.51205-1.0607z" fill="#070648"/>
<path d="m1.8293 18c-0.46366 0-0.90834 0.158-1.2362 0.4393s-0.51205 0.6629-0.51205 1.0607 0.18419 0.7793 0.51205 1.0606c0.32786 0.2814 0.77254 0.4394 1.2362 0.4394h13.986c0.4636 0 0.9083-0.158 1.2362-0.4394 0.3278-0.2813 0.512-0.6628 0.512-1.0606s-0.1842-0.7794-0.512-1.0607c-0.3279-0.2813-0.7726-0.4393-1.2362-0.4393h-13.986z" fill="#070648"/>
<path d="m1.7482 0c-0.46366 0-0.90833 0.15804-1.2362 0.43934-0.32786 0.2813-0.51205 0.66284-0.51205 1.0607s0.18419 0.77936 0.51205 1.0607 0.77253 0.43934 1.2362 0.43934h13.986c0.4637 0 0.9083-0.15804 1.2362-0.43934 0.3278-0.2813 0.512-0.66284 0.512-1.0607s-0.1842-0.77936-0.512-1.0607c-0.3279-0.2813-0.7725-0.43934-1.2362-0.43934h-13.986z" fill="#070648"/>
</svg>
